<svg width="128" height="128" viewBox="0 0 128 128" fill="none" xmlns="http://www.w3.org/2000/svg">
  <defs>
    <linearGradient id="fv_frame" x1="15" y1="13" x2="113" y2="116" gradientUnits="userSpaceOnUse">
      <stop stop-color="#F3F6F8"/>
      <stop offset="1" stop-color="#82919F"/>
    </linearGradient>
    <linearGradient id="fv_sky" x1="64" y1="22" x2="64" y2="70" gradientUnits="userSpaceOnUse">
      <stop stop-color="#56C7FF"/>
      <stop offset="1" stop-color="#EAF8FF"/>
    </linearGradient>
    <linearGradient id="fv_field" x1="23" y1="62" x2="106" y2="103" gradientUnits="userSpaceOnUse">
      <stop stop-color="#0E8428"/>
      <stop offset="1" stop-color="#A6D93D"/>
    </linearGradient>
    <linearGradient id="fv_horse" x1="42" y1="30" x2="77" y2="95" gradientUnits="userSpaceOnUse">
      <stop stop-color="#FFD85E"/>
      <stop offset="0.56" stop-color="#F6B133"/>
      <stop offset="1" stop-color="#8A3D09"/>
    </linearGradient>
  </defs>

  <rect x="10" y="10" width="108" height="108" rx="24" fill="url(#fv_frame)" stroke="#65727E" stroke-width="2"/>
  <rect x="16" y="16" width="96" height="96" rx="20" fill="#FFFEFA" stroke="#D9E0E5" stroke-width="2"/>
  <rect x="20" y="20" width="88" height="88" rx="18" fill="#0C5B1B"/>
  <rect x="24" y="24" width="80" height="80" rx="14" fill="#FDFDF9"/>

  <path d="M24 24H104V64C94 61 84 60 64 60C44 60 34 61 24 64V24Z" fill="url(#fv_sky)"/>
  <circle cx="40" cy="40" r="10" fill="#F4E14B"/>
  <path d="M24 64C36 58 45 56 64 56C83 56 92 58 104 64V104H24V64Z" fill="url(#fv_field)"/>
  <path d="M25 69C41 57 50 53 64 53C78 53 87 57 103 69" stroke="#DCEF5B" stroke-width="3.5" stroke-linecap="round"/>

  <path d="M79 46L91 39L97 49V64H79V46Z" fill="#E34B28"/>
  <path d="M36 70C36 49 48 30 68 30C80 30 89 38 93 50C95 57 95 64 93 70C89 83 81 97 68 97C58 97 50 93 44 86C39 80 36 78 36 70Z" fill="url(#fv_horse)" stroke="#5E2402" stroke-width="2.8"/>
  <path d="M49 28L56 15L61 35L49 28Z" fill="#F7A51E" stroke="#5E2402" stroke-width="2.8"/>
  <path d="M64 28L71 16L76 36L64 28Z" fill="#F7A51E" stroke="#5E2402" stroke-width="2.8"/>
  <circle cx="67" cy="55" r="6.5" fill="#FFFFFF"/>
  <circle cx="68" cy="56" r="4.8" fill="#151B24"/>
  <path d="M48 39C55 35 63 35 68 40" stroke="#FFF17A" stroke-width="3.2" stroke-linecap="round"/>
  <path d="M47 77C50 73 55 73 58 77" stroke="#5E2402" stroke-width="2.8" stroke-linecap="round"/>
</svg>
